<svg xmlns="http://www.w3.org/2000/svg" viewBox="0 0 120 120"><rect x="20" y="24" width="80" height="80" rx="14" fill="#fff"/><rect x="20" y="24" width="80" height="26" rx="14" fill="#E0326E"/><rect x="20" y="40" width="80" height="10" fill="#E0326E"/><rect x="36" y="14" width="8" height="20" rx="4" fill="#2B1E25"/><rect x="76" y="14" width="8" height="20" rx="4" fill="#2B1E25"/><g fill="#EFD9E1"><rect x="30" y="58" width="12" height="10" rx="3"/><rect x="48" y="58" width="12" height="10" rx="3"/><rect x="66" y="58" width="12" height="10" rx="3"/><rect x="30" y="74" width="12" height="10" rx="3"/><rect x="66" y="74" width="12" height="10" rx="3"/><rect x="30" y="90" width="12" height="8" rx="3"/><rect x="48" y="90" width="12" height="8" rx="3"/></g><path d="M72 88.55 C61.2 81.35 62.55 72.35 72 77.75 C81.45 72.35 82.8 81.35 72 88.55Z" fill="#E0326E"/></svg>