<svg xmlns="http://www.w3.org/2000/svg" viewBox="0 0 120 120"><circle cx="60" cy="74" r="30" fill="none" stroke="#FFD166" stroke-width="11"/><circle cx="60" cy="74" r="30" fill="none" stroke="#F2B84C" stroke-width="4" stroke-dasharray="40 150" transform="rotate(120 60 74)"/><path d="M60 12l20 18-20 22-20-22z" fill="#B7E3F3"/><path d="M60 12l20 18h-40z" fill="#E4F6FB"/><path d="M40 30h40l-20 22z" fill="#8FD3EC"/><path d="M48 24l6-6" stroke="#fff" stroke-width="3" stroke-linecap="round"/><path d="M96 16 l1.6800000000000002 4.32 4.32 0 -3.4799999999999995 2.7 1.32 4.32 -3.84 -2.64 -3.84 2.64 1.32 -4.32 -3.4799999999999995 -2.7 4.32 0z" fill="#FF8FB3"/><path d="M22 25 l1.4000000000000001 3.5999999999999996 3.5999999999999996 0 -2.9 2.25 1.1 3.5999999999999996 -3.2 -2.2 -3.2 2.2 1.1 -3.5999999999999996 -2.9 -2.25 3.5999999999999996 0z" fill="#FF8FB3"/></svg>